<?xml version="1.0" encoding="utf-8"?>
<!-- Generator: Adobe Illustrator 22.1.0, SVG Export Plug-In . SVG Version: 6.00 Build 0)  -->
<svg version="1.1" id="Calque_1" xmlns="http://www.w3.org/2000/svg" xmlns:xlink="http://www.w3.org/1999/xlink" x="0px" y="0px"
	 width="100px" height="100px" viewBox="0 0 100 100" style="enable-background:new 0 0 100 100;" xml:space="preserve">
<style type="text/css">
	.st0{fill:none;stroke:#FFFFFF;stroke-miterlimit:10;}
	.st1{fill:#FFFFFF;}
</style>
<g>
	<g>
		<polyline class="st0" points="68.7678,46.4822 50,65.25 31.2322,46.4822 		"/>
		<g>
			<path class="st1" d="M68.7676,45.9824c0.0773,0,0.2259,0.019,0.3537,0.1469c0.1273,0.1271,0.1463,0.2758,0.1463,0.3531
				c0,0.0773-0.019,0.226-0.1466,0.3534L50.3534,65.6034C50.2259,65.731,50.0773,65.75,50,65.75s-0.2259-0.019-0.3534-0.1466
				L30.8787,46.8356c-0.1273-0.1272-0.1463-0.2758-0.1463-0.3531c0-0.0773,0.019-0.226,0.1466-0.3534
				c0.1275-0.1275,0.2762-0.1466,0.3534-0.1466c0.0773,0,0.2259,0.019,0.3534,0.1466l17.707,17.707L50,64.5431l0.7071-0.7071
				l17.707-17.707C68.5417,46.0015,68.6903,45.9824,68.7676,45.9824 M68.7676,44.9824c-0.3838,0-0.7676,0.1465-1.0605,0.4395
				L50,63.1289l-17.707-17.707c-0.293-0.293-0.6768-0.4395-1.0605-0.4395s-0.7676,0.1465-1.0605,0.4395
				c-0.5859,0.5854-0.5859,1.5356,0,2.1211l18.7676,18.7676C49.2324,66.6035,49.6162,66.75,50,66.75s0.7676-0.1465,1.0606-0.4395
				L69.8281,47.543c0.5859-0.5854,0.5859-1.5356,0-2.1211C69.5352,45.1289,69.1514,44.9824,68.7676,44.9824L68.7676,44.9824z"/>
		</g>
	</g>
	<g>
		<polyline class="st0" points="62.5,34.75 50,47.25 37.5,34.75 		"/>
		<g>
			<path class="st1" d="M62.5,34.25c0.0773,0,0.2259,0.019,0.3537,0.1469C62.981,34.524,63,34.6727,63,34.75
				c0,0.0773-0.019,0.226-0.1466,0.3534l-12.5,12.5C50.2259,47.731,50.0773,47.75,50,47.75s-0.2259-0.019-0.3534-0.1466
				L37.1463,35.1031C37.019,34.976,37,34.8273,37,34.75c0-0.0773,0.019-0.226,0.1466-0.3534
				C37.2741,34.269,37.4227,34.25,37.5,34.25s0.2259,0.019,0.3534,0.1466L49.2929,45.836L50,46.5431l0.7071-0.7071l11.4394-11.4394
				C62.2741,34.269,62.4227,34.25,62.5,34.25 M62.5,33.25c-0.3838,0-0.7676,0.1465-1.0606,0.4395L50,45.1289L38.5606,33.6895
				c-0.293-0.293-0.6768-0.4395-1.0606-0.4395s-0.7676,0.1465-1.0606,0.4395c-0.5859,0.5854-0.5859,1.5356,0,2.1211l12.5,12.5
				C49.2324,48.6035,49.6162,48.75,50,48.75s0.7676-0.1465,1.0606-0.4394l12.5-12.5c0.5859-0.5854,0.5859-1.5356,0-2.1211
				C63.2676,33.3965,62.8838,33.25,62.5,33.25L62.5,33.25z"/>
		</g>
	</g>
</g>
</svg>
