<?xml version="1.0" encoding="utf-8"?>
<!-- Generator: Adobe Illustrator 22.1.0, SVG Export Plug-In . SVG Version: 6.00 Build 0)  -->
<svg version="1.1" id="Calque_1" xmlns="http://www.w3.org/2000/svg" xmlns:xlink="http://www.w3.org/1999/xlink" x="0px" y="0px"
	 width="150px" height="150px" viewBox="0 0 150 150" style="enable-background:new 0 0 150 150;" xml:space="preserve">
<style type="text/css">
	.st0{font-family:'NeftaliPro-Bold';}
	.st1{font-size:14.9491px;}
</style>
<g>
	<path d="M97.8952,50.6537c1.2011,0.7298,2.4673,1.3716,3.5931,2.2033c9.5654,7.066,15.5217,16.4446,17.7932,28.1207
		c0.8474,4.3557,0.9254,8.7626,0.442,13.1728c-0.0301,0.2748-0.3074,0.7438-0.4791,0.7481
		c-2.0676,0.0522-4.1371,0.0338-6.2395,0.0338c1.5522-13.0673-2.0671-24.2773-11.4607-33.3779
		c-7.6475-7.409-16.9775-10.8676-27.5858-10.4891c-11.3114,0.4035-20.7076,5.0743-27.9411,13.761
		c-7.2226,8.6736-9.8073,18.771-8.3941,30.0393c-0.4412,0.0265-0.8362,0.0677-1.2316,0.0706
		c-1.2605,0.0093-2.5214,0.022-3.7815,0.0006c-1.9522-0.0332-1.6234,0.3263-1.8026-1.6248
		c-2.1429-23.3311,13.6658-43.5533,35.4609-48.0041c0.2468-0.0504,0.4906-0.1169,0.7387-0.1593
		c1.6203-0.2766,3.4099-0.1589,4.3462-2.1095c-0.4463-0.6692-0.6078-1.5464,0.0914-2.4306
		c-0.3374-0.4726-1.6359-0.349-0.8098-1.4617c-3.0114-0.4522-5.9094-1.1083-8.4772-2.6319
		c-1.4397-0.8543-2.8689-1.8831-3.9635-3.1309c-2.5363-2.8913-2.2992-6.4924,0.3874-9.2542
		c2.3409-2.4064,5.2821-3.7269,8.4768-4.515c6.3899-1.5764,12.7284-1.4479,18.9657,0.773c1.9101,0.6801,3.6781,1.6318,5.2237,2.9764
		c3.9458,3.4328,3.8571,8.2246-0.2201,11.4925c-2.8329,2.2706-6.1461,3.3867-9.6508,4.0511
		c-0.4315,0.0818-0.864,0.1578-1.3506,0.2465c0.6531,1.0268-0.3191,1.0622-0.8901,1.3778c0.6204,0.9008,0.7328,1.7764,0.0403,2.5297
		c0.4427,0.517,0.8114,1.0074,1.2476,1.4277c0.1787,0.1722,0.497,0.2406,0.7624,0.2756c4.6245,0.6095,9.0529,1.8917,13.2512,3.9218
		c1.2016,0.581,2.3255,1.3228,3.4836,1.9899c-1.0666,0.3888-1.9915-0.0071-2.9655-0.4232c-2.976-1.2713-5.9815-2.4739-8.9801-3.6917
		c-0.2-0.0812-0.4389-0.0664-0.7166-0.1039c0.6162,1.7323,0.6322,1.691,2.1472,2.2772c1.7599,0.681,3.5097,1.3972,5.2218,2.1891
		c1.0185,0.4711,1.9561,1.1171,2.933,1.6862c-0.2001,0.2568-0.3752,0.4817-0.5503,0.7065c0.8367-0.8292,1.5104-0.2778,2.2012,0.1738
		c12.1057,7.9125,18.4649,19.3485,20.4986,33.4344c0.1079,0.7473,0.1671,1.5018,0.2411,2.2537
		c0.0734,0.7443,0.1369,1.4896,0.2047,2.2345c0.4077-5.6797-0.4182-11.1887-2.3059-16.5306
		c-3.5362-10.0071-9.849-17.819-18.7832-23.4607C97.3845,51.1275,97.6398,50.8906,97.8952,50.6537z M81.9996,36.4975
		c0.6175-0.1679,1.2201-0.3085,1.8079-0.4956c2.5423-0.8096,4.9899-1.8107,6.8089-3.8728c1.7586-1.9936,1.7487-4.2263,0.0031-6.2214
		c-1.4291-1.6335-3.2817-2.6474-5.2886-3.3586c-6.4564-2.288-12.9632-2.3158-19.4644-0.2207
		c-2.2658,0.7302-4.3608,1.8293-5.9564,3.6797c-1.3916,1.6138-1.6506,3.6495-0.5554,5.2337
		c2.2328,3.2297,5.6783,4.3193,9.4071,5.2723c-1.528-2.0418-1.297-3.3365,0.8774-4.3474c3.7766-1.7557,7.638-1.7237,11.4152,0.03
		c1.7911,0.8316,2.6077,2.517,0.9488,4.0446C81.9749,36.2673,81.9996,36.3508,81.9996,36.4975z M34.5797,77.3335
		c0.4893-1.4741,0.8882-2.9857,1.4823-4.4163c4.823-11.6153,13.6421-18.8381,25.3476-22.7747
		c1.2742-0.4285,1.905-1.1906,2.6436-2.3542c-8.2565,2.2398-15.214,6.2528-20.8664,12.4369
		C38.718,65.1145,35.7631,70.7828,34.5797,77.3335z M75.4027,31.831c-0.0994-0.0093-0.1989-0.0187-0.2983-0.028
		c0,1.4845,0,2.969,0,4.4536c0.0976-0.0002,0.1951-0.0003,0.2927-0.0005C75.7827,34.7842,75.9045,33.3102,75.4027,31.831z
		 M73.4568,31.6525c-1.1351,0.5165-1.2778,2.7393-0.2534,3.9959C73.2861,34.3451,73.3724,32.9836,73.4568,31.6525z M77.3903,35.8785
		c0.994-1.6749,0.8732-3.7315-0.2098-4.206C77.2503,33.0726,77.3225,34.5205,77.3903,35.8785z M71.1724,35.5352
		c0.0882-1.1457,0.1908-2.4769,0.2886-3.747C70.3974,32.3081,70.2743,34.1422,71.1724,35.5352z M79.4635,35.3986
		c0.8969-1.5768,0.6967-3.2707-0.3254-3.5652C79.2438,32.9916,79.3546,34.2051,79.4635,35.3986z"/>
	<path d="M98.3546,72.2667c-2.162,2.0191-4.1024,4.3821-6.5494,5.9587c-2.3552,1.5175-4.2991,3.4431-6.4625,5.1361
		c-2.1806,1.7065-4.23,3.5806-6.3359,5.3825c-0.0693,0.0593-0.127,0.1322-0.2175,0.2278c0.4517,1.1388,0.6266,2.2997,0.0804,3.4638
		c-0.8523,1.8166-2.9022,2.6222-4.777,1.8851c-1.7858-0.7022-2.7768-2.7415-2.1229-4.5851
		c0.2409-0.6793,0.1598-1.0601-0.3891-1.5137c-0.9699-0.8014-1.8588-1.7003-2.7954-2.543c-0.6652-0.5985-1.2554-1.243-2.2947-1.3202
		c-0.5563-0.0413-1.1853-0.4876-1.5916-0.9268c-1.897-2.0508-3.7278-4.1629-5.5823-6.2531c0.0535-0.0673,0.107-0.1345,0.1605-0.2018
		c0.9373,0.5709,1.883,1.1287,2.81,1.7159c1.3033,0.8255,2.6049,1.6547,3.8837,2.5172c0.8508,0.5738,1.5452,1.2873,1.7756,2.3531
		c0.0487,0.2255,0.1893,0.4769,0.3653,0.6218c1.4104,1.1609,2.8298,2.3114,4.2739,3.4298c0.1976,0.153,0.6282,0.2481,0.8117,0.138
		c1.5659-0.94,3.0562-0.7808,4.5835,0.2578c1.9049-1.4853,3.8133-2.9751,5.7236-4.4624c2.2114-1.7217,4.6806-3.2022,6.5692-5.2251
		c2.1499-2.3028,4.9174-3.6623,7.2472-5.645c0.2351-0.2001,0.5113-0.352,0.7684-0.5263
		C98.3111,72.1902,98.3328,72.2284,98.3546,72.2667z M77.5234,89.7431c-0.2479,0.4563-0.5412,0.8944-0.7329,1.3732
		c-0.2753,0.6874-0.7052,1.1642-1.4705,1.0601c-0.7279-0.099-1.2222-0.5692-1.1809-1.35c0.0421-0.7975,0.5041-1.3217,1.3384-1.2605
		c0.7101,0.0521,1.0867-0.2857,1.4231-0.8125c-1.2591-0.7488-2.5578-0.5534-3.4151,0.4828c-0.79,0.9549-0.7713,2.3704,0.0434,3.2959
		c0.8631,0.9803,2.266,1.2013,3.3308,0.5247C77.988,92.3398,78.3543,91.1045,77.5234,89.7431z M75.4366,90.0207
		c-0.2424,0.4046-0.5248,0.6667-0.4921,0.8806c0.0321,0.2096,0.4003,0.5277,0.5928,0.5089
		c0.2025-0.0197,0.5114-0.3796,0.5156-0.5958C76.057,90.6023,75.7365,90.3839,75.4366,90.0207z"/>
	<path d="M96.5614,123.4236c0-0.746,0-1.3982,0-2.1698c0.3681-0.0167,0.7312-0.0476,1.0943-0.0477
		c8.1823-0.0017,16.3646-0.0002,24.5469,0.002c0.2831,0.0001,0.5701-0.0135,0.8484,0.0267c0.6755,0.0976,1.1079,0.4542,1.0666,1.188
		c-0.0385,0.685-0.4739,0.9957-1.118,1.0325c-0.4706,0.0269-0.9435,0.0175-1.4154,0.0176
		c-8.0249,0.0013-16.0498,0.0021-24.0747,0.0002C97.2299,123.473,96.9502,123.4447,96.5614,123.4236z"/>
	<path d="M53.5909,121.209c0,0.8104,0,1.4653,0,2.2689c-0.8954,0-1.7629,0.0002-2.6305,0
		c-7.5231-0.0015-15.0462-0.0025-22.5694-0.0053c-1.3578-0.0005-1.9262-0.3357-1.927-1.1238
		c-0.0008-0.7779,0.6158-1.1458,1.9248-1.1455c8.0271,0.0016,16.0541,0.0037,24.0812,0.0056
		C52.8087,121.209,53.1474,121.209,53.5909,121.209z"/>
	<path d="M92.423,58.4593c0.3443-0.6123,0.6628-1.1785,1.0314-1.8339c0.2983,0.1539,0.5525,0.285,0.799,0.4122
		C93.5161,58.9408,93.333,59.092,92.423,58.4593z"/>
	<path d="M107.271,70.0522c0.191,0.3239,0.3129,0.5305,0.5009,0.8493c-0.6037,0.3582-1.1773,0.6985-1.8388,1.091
		c-0.1886-0.273-0.35-0.5067-0.5642-0.8169C106.0307,70.7848,106.6083,70.4436,107.271,70.0522z"/>
	<path d="M44.695,72.0056c-0.646-0.3824-1.2089-0.7156-1.8544-1.0977c0.1554-0.2782,0.2963-0.5305,0.4765-0.8531
		c0.6483,0.3708,1.2353,0.7066,1.8933,1.0829C45.0155,71.4658,44.8662,71.7173,44.695,72.0056z"/>
	<path d="M75.7735,52.9837c0,0.2177,0.0732,0.4761-0.0193,0.6422c-0.1054,0.1891-0.3587,0.2959-0.5477,0.4384
		c-0.137-0.417-0.3665-0.831-0.3802-1.252c-0.0101-0.3099,0.2618-0.6291,0.4081-0.9441c0.181,0.1541,0.4237,0.2764,0.5244,0.4719
		c0.0887,0.172,0.0185,0.4259,0.0185,0.6436C75.7761,52.9837,75.7748,52.9837,75.7735,52.9837z"/>
	<path d="M58.2664,58.6102c-1.5109,0.4633-1.3259-0.9517-2.0905-1.4058c0.3816-0.2399,0.6243-0.3925,0.966-0.6073
		C57.5118,57.2593,57.8401,57.847,58.2664,58.6102z"/>
	<path d="M111.5491,88.6188c0.1884,0.0012,0.409-0.0603,0.557,0.0169c0.1811,0.0945,0.3015,0.3055,0.4481,0.466
		c-0.2727,0.1641-0.5637,0.487-0.8142,0.4582c-0.4781-0.055-1.1881,0.4383-1.3982-0.4146c-0.034-0.138,0.1988-0.4467,0.3676-0.5052
		C110.9616,88.553,111.2666,88.6176,111.5491,88.6188z"/>
	<path d="M39.1539,88.6178c0.2177,0,0.4686-0.0679,0.6445,0.0179c0.2015,0.0982,0.4031,0.3116,0.4691,0.5183
		c0.0284,0.0888-0.2669,0.3812-0.4464,0.4151c-0.3606,0.0681-0.7557,0.0809-1.1114,0.0024
		c-0.2313-0.0511-0.4182-0.3035-0.625-0.4658c0.2009-0.1643,0.3858-0.3575,0.6091-0.4812c0.119-0.0659,0.3046-0.0117,0.4601-0.0117
		C39.1539,88.6144,39.1539,88.6161,39.1539,88.6178z"/>
	<path d="M122.4369,98.1661H26.9255c-0.5752,0-1.0458-0.4706-1.0458-1.0458v-0.1861c0-0.5752,0.4706-1.0458,1.0458-1.0458h95.5113
		c0.5752,0,1.0458,0.4706,1.0458,1.0458v0.1861C123.4827,97.6955,123.0121,98.1661,122.4369,98.1661z"/>
	<text transform="matrix(1 -0.0033 0.0033 1 30.3092 112.3513)" class="st0 st1">GENTLEMAN</text>
	<text transform="matrix(1 0 0 1 56.9498 127.1225)" class="st0 st1">TIME</text>
</g>
</svg>
